+ filenameToUse=/home/horvathandras/vatic/vatic/public/videouploads/DJI_0425_szarvasragas_vaskut_20180812_napos_napraforgo_T4.avi
+ filenameNoDot=DJI_0425_szarvasragas_vaskut_20180812_napos_napraforgo_T4
+ FullUploadPath=/home/horvathandras/vatic/vatic/public/videouploads/DJI_0425_szarvasragas_vaskut_20180812_napos_napraforgo_T4.avi
+ VideoDataDir=/home/horvathandras/vatic/vatic/videos
+ AvailableObjectTypes='PozitívROI NegatívROI Túrás ~Friss ~1-2Hetes ~Régebbi ~Egyéb1 ~Egyéb2 ~Egyéb3 Rágás ~Friss ~1-2Hetes ~Régebbi ~Egyéb1 ~Egyéb2 ~Egyéb3 Törés ~Friss ~1-2Hetes ~Régebbi ~Egyéb1 ~Egyéb2 ~Egyéb3 Taposás ~Friss ~1-2Hetes ~Régebbi ~Egyéb1 ~Egyéb2 ~Egyéb3 EgészségesNövény Egyéb1 Egyéb2 Egyéb3 Egyéb4 Egyéb5 Bizonytalan Művelőút Gktaposás Vetőhiba Széldöntés Jégkár Belvíz Aszály Erózió EgyszikűGyom KétszikűGyom EgyébNövvédelmiPR'
++ dirname /home/horvathandras/vatic/vatic/vatic_publisher.sh
+ cd /home/horvathandras/vatic/vatic
+ touch /home/horvathandras/vatic/vatic/public/videouploads/DJI_0425_szarvasragas_vaskut_20180812_napos_napraforgo_T4.avi
+ chmod 744 /home/horvathandras/vatic/vatic/public/videouploads/DJI_0425_szarvasragas_vaskut_20180812_napos_napraforgo_T4.avi
+ mkdir /home/horvathandras/vatic/vatic/videos/DJI_0425_szarvasragas_vaskut_20180812_napos_napraforgo_T4
+ turkic extract /home/horvathandras/vatic/vatic/public/videouploads/DJI_0425_szarvasragas_vaskut_20180812_napos_napraforgo_T4.avi /home/horvathandras/vatic/vatic/videos/DJI_0425_szarvasragas_vaskut_20180812_napos_napraforgo_T4 --no-resize
ffmpeg version 2.8.14-0ubuntu0.16.04.1 Copyright (c) 2000-2018 the FFmpeg developers
  built with gcc 5.4.0 (Ubuntu 5.4.0-6ubuntu1~16.04.9) 20160609
  configuration: --prefix=/usr --extra-version=0ubuntu0.16.04.1 --build-suffix=-ffmpeg --toolchain=hardened --libdir=/usr/lib/x86_64-linux-gnu --incdir=/usr/include/x86_64-linux-gnu --cc=cc --cxx=g++ --enable-gpl --enable-shared --disable-stripping --disable-decoder=libopenjpeg --disable-decoder=libschroedinger --enable-avresample --enable-avisynth --enable-gnutls --enable-ladspa --enable-libass --enable-libbluray --enable-libbs2b --enable-libcaca --enable-libcdio --enable-libflite --enable-libfontconfig --enable-libfreetype --enable-libfribidi --enable-libgme --enable-libgsm --enable-libmodplug --enable-libmp3lame --enable-libopenjpeg --enable-libopus --enable-libpulse --enable-librtmp --enable-libschroedinger --enable-libshine --enable-libsnappy --enable-libsoxr --enable-libspeex --enable-libssh --enable-libtheora --enable-libtwolame --enable-libvorbis --enable-libvpx --enable-libwavpack --enable-libwebp --enable-libx265 --enable-libxvid --enable-libzvbi --enable-openal --enable-opengl --enable-x11grab --enable-libdc1394 --enable-libiec61883 --enable-libzmq --enable-frei0r --enable-libx264 --enable-libopencv
  libavutil      54. 31.100 / 54. 31.100
  libavcodec     56. 60.100 / 56. 60.100
  libavformat    56. 40.101 / 56. 40.101
  libavdevice    56.  4.100 / 56.  4.100
  libavfilter     5. 40.101 /  5. 40.101
  libavresample   2.  1.  0 /  2.  1.  0
  libswscale      3.  1.101 /  3.  1.101
  libswresample   1.  2.101 /  1.  2.101
  libpostproc    53.  3.100 / 53.  3.100
Input #0, mov,mp4,m4a,3gp,3g2,mj2, from '/home/horvathandras/vatic/vatic/public/videouploads/DJI_0425_szarvasragas_vaskut_20180812_napos_napraforgo_T4.avi':
  Metadata:
    major_brand     : qt  
    minor_version   : 537986816
    compatible_brands: qt  
    creation_time   : 2018-08-12 07:48:44
    location        : +46.091564+18.981092+30.200
    location-{    : +46.091564+18.981092+30.200
    comment         : DE=None, Mode=P, DSW=0001
  Duration: 00:00:08.54, start: 0.000000, bitrate: 103045 kb/s
    Stream #0:0(eng): Video: h264 (High) (avc1 / 0x31637661), yuv420p(tv, bt709), 4096x2160 [SAR 1:1 DAR 256:135], 102554 kb/s, 50 fps, 50 tbr, 50k tbn, 100 tbc (default)
    Metadata:
      creation_time   : 2018-08-12 07:48:44
      handler_name    : DJI.AVC
      encoder         : AVC encoder
    Stream #0:1(eng): Data: none (priv / 0x76697270), 460 kb/s
    Metadata:
      creation_time   : 2018-08-12 07:48:44
      handler_name    : DJI.Meta
Please use -b:a or -b:v, -b is ambiguous
[swscaler @ 0xd91be0] deprecated pixel format used, make sure you did set range correctly
Output #0, image2, to '/tmp/pyvision-ffmpeg-115512377/%d.jpg':
  Metadata:
    major_brand     : qt  
    minor_version   : 537986816
    compatible_brands: qt  
    comment         : DE=None, Mode=P, DSW=0001
    location        : +46.091564+18.981092+30.200
    location-{    : +46.091564+18.981092+30.200
    encoder         : Lavf56.40.101
    Stream #0:0(eng): Video: mjpeg, yuvj420p(pc), 4096x2160 [SAR 1:1 DAR 256:135], q=2-31, 10000 kb/s, 50 fps, 50 tbn, 50 tbc (default)
    Metadata:
      creation_time   : 2018-08-12 07:48:44
      handler_name    : DJI.AVC
      encoder         : Lavc56.60.100 mjpeg
Stream mapping:
  Stream #0:0 -> #0:0 (h264 (native) -> mjpeg (native))
Press [q] to stop, [?] for help
frame=    1 fps=0.9 q=19.6 size=N/A time=00:00:00.02 bitrate=N/A    frame=    5 fps=2.9 q=24.8 size=N/A time=00:00:00.10 bitrate=N/A    frame=   10 fps=4.3 q=24.8 size=N/A time=00:00:00.20 bitrate=N/A    frame=   15 fps=4.9 q=24.8 size=N/A time=00:00:00.30 bitrate=N/A    frame=   19 fps=5.3 q=24.8 size=N/A time=00:00:00.38 bitrate=N/A    frame=   23 fps=5.4 q=24.8 size=N/A time=00:00:00.46 bitrate=N/A    frame=   27 fps=5.7 q=24.8 size=N/A time=00:00:00.54 bitrate=N/A    frame=   31 fps=5.7 q=24.8 size=N/A time=00:00:00.62 bitrate=N/A    frame=   35 fps=5.8 q=24.8 size=N/A time=00:00:00.70 bitrate=N/A    frame=   39 fps=6.0 q=24.8 size=N/A time=00:00:00.78 bitrate=N/A    frame=   43 fps=6.0 q=24.8 size=N/A time=00:00:00.86 bitrate=N/A    frame=   47 fps=6.0 q=24.8 size=N/A time=00:00:00.94 bitrate=N/A    frame=   51 fps=6.1 q=24.8 size=N/A time=00:00:01.02 bitrate=N/A    frame=   55 fps=6.2 q=24.8 size=N/A time=00:00:01.10 bitrate=N/A    frame=   59 fps=6.2 q=24.8 size=N/A time=00:00:01.18 bitrate=N/A    frame=   63 fps=6.2 q=24.8 size=N/A time=00:00:01.26 bitrate=N/A    frame=   67 fps=6.2 q=24.8 size=N/A time=00:00:01.34 bitrate=N/A    frame=   72 fps=6.3 q=24.8 size=N/A time=00:00:01.44 bitrate=N/A    frame=   76 fps=6.4 q=24.8 size=N/A time=00:00:01.52 bitrate=N/A    frame=   81 fps=6.5 q=24.8 size=N/A time=00:00:01.62 bitrate=N/A    frame=   85 fps=6.5 q=24.8 size=N/A time=00:00:01.70 bitrate=N/A    frame=   90 fps=6.5 q=24.8 size=N/A time=00:00:01.80 bitrate=N/A    frame=   93 fps=6.5 q=24.8 size=N/A time=00:00:01.86 bitrate=N/A    frame=   97 fps=6.5 q=24.8 size=N/A time=00:00:01.94 bitrate=N/A    frame=  101 fps=6.6 q=24.8 size=N/A time=00:00:02.02 bitrate=N/A    frame=  104 fps=6.5 q=24.8 size=N/A time=00:00:02.08 bitrate=N/A    frame=  108 fps=6.5 q=24.8 size=N/A time=00:00:02.16 bitrate=N/A    frame=  112 fps=6.6 q=24.8 size=N/A time=00:00:02.24 bitrate=N/A    frame=  116 fps=6.6 q=24.8 size=N/A time=00:00:02.32 bitrate=N/A    frame=  119 fps=6.5 q=24.8 size=N/A time=00:00:02.38 bitrate=N/A    frame=  123 fps=6.5 q=24.8 size=N/A time=00:00:02.46 bitrate=N/A    frame=  127 fps=6.6 q=24.8 size=N/A time=00:00:02.54 bitrate=N/A    frame=  131 fps=6.6 q=24.8 size=N/A time=00:00:02.62 bitrate=N/A    frame=  135 fps=6.6 q=24.8 size=N/A time=00:00:02.70 bitrate=N/A    frame=  139 fps=6.6 q=24.8 size=N/A time=00:00:02.78 bitrate=N/A    frame=  143 fps=6.6 q=24.8 size=N/A time=00:00:02.86 bitrate=N/A    frame=  147 fps=6.6 q=24.8 size=N/A time=00:00:02.94 bitrate=N/A    frame=  150 fps=6.6 q=24.8 size=N/A time=00:00:03.00 bitrate=N/A    frame=  154 fps=6.6 q=24.8 size=N/A time=00:00:03.08 bitrate=N/A    frame=  158 fps=6.6 q=24.8 size=N/A time=00:00:03.16 bitrate=N/A    frame=  162 fps=6.6 q=24.8 size=N/A time=00:00:03.24 bitrate=N/A    frame=  166 fps=6.6 q=24.8 size=N/A time=00:00:03.32 bitrate=N/A    frame=  169 fps=6.6 q=24.8 size=N/A time=00:00:03.38 bitrate=N/A    frame=  172 fps=6.6 q=24.8 size=N/A time=00:00:03.44 bitrate=N/A    frame=  176 fps=6.6 q=24.8 size=N/A time=00:00:03.52 bitrate=N/A    frame=  180 fps=6.6 q=24.8 size=N/A time=00:00:03.60 bitrate=N/A    frame=  185 fps=6.7 q=24.8 size=N/A time=00:00:03.70 bitrate=N/A    frame=  188 fps=6.6 q=24.8 size=N/A time=00:00:03.76 bitrate=N/A    frame=  192 fps=6.6 q=24.8 size=N/A time=00:00:03.84 bitrate=N/A    frame=  195 fps=6.6 q=24.8 size=N/A time=00:00:03.90 bitrate=N/A    frame=  199 fps=6.6 q=24.8 size=N/A time=00:00:03.98 bitrate=N/A    frame=  203 fps=6.6 q=24.8 size=N/A time=00:00:04.06 bitrate=N/A    frame=  207 fps=6.6 q=24.8 size=N/A time=00:00:04.14 bitrate=N/A    frame=  211 fps=6.7 q=24.8 size=N/A time=00:00:04.22 bitrate=N/A    frame=  214 fps=6.6 q=24.8 size=N/A time=00:00:04.28 bitrate=N/A    frame=  218 fps=6.6 q=24.8 size=N/A time=00:00:04.36 bitrate=N/A    frame=  222 fps=6.6 q=24.8 size=N/A time=00:00:04.44 bitrate=N/A    frame=  225 fps=6.6 q=24.8 size=N/A time=00:00:04.50 bitrate=N/A    frame=  229 fps=6.6 q=24.8 size=N/A time=00:00:04.58 bitrate=N/A    frame=  233 fps=6.6 q=24.8 size=N/A time=00:00:04.66 bitrate=N/A    frame=  237 fps=6.6 q=24.8 size=N/A time=00:00:04.74 bitrate=N/A    frame=  241 fps=6.6 q=24.8 size=N/A time=00:00:04.82 bitrate=N/A    frame=  245 fps=6.6 q=24.8 size=N/A time=00:00:04.90 bitrate=N/A    frame=  249 fps=6.6 q=24.8 size=N/A time=00:00:04.98 bitrate=N/A    frame=  252 fps=6.6 q=24.8 size=N/A time=00:00:05.04 bitrate=N/A    frame=  256 fps=6.6 q=24.8 size=N/A time=00:00:05.12 bitrate=N/A    frame=  260 fps=6.6 q=24.8 size=N/A time=00:00:05.20 bitrate=N/A    frame=  264 fps=6.6 q=24.8 size=N/A time=00:00:05.28 bitrate=N/A    frame=  268 fps=6.6 q=24.8 size=N/A time=00:00:05.36 bitrate=N/A    frame=  272 fps=6.6 q=24.8 size=N/A time=00:00:05.44 bitrate=N/A    frame=  277 fps=6.6 q=24.8 size=N/A time=00:00:05.54 bitrate=N/A    frame=  282 fps=6.6 q=24.8 size=N/A time=00:00:05.64 bitrate=N/A    frame=  287 fps=6.7 q=24.8 size=N/A time=00:00:05.74 bitrate=N/A    frame=  291 fps=6.7 q=24.8 size=N/A time=00:00:05.82 bitrate=N/A    frame=  295 fps=6.7 q=24.8 size=N/A time=00:00:05.90 bitrate=N/A    frame=  299 fps=6.7 q=24.8 size=N/A time=00:00:05.98 bitrate=N/A    frame=  302 fps=6.7 q=24.8 size=N/A time=00:00:06.04 bitrate=N/A    frame=  305 fps=6.6 q=24.8 size=N/A time=00:00:06.10 bitrate=N/A    frame=  309 fps=6.7 q=24.8 size=N/A time=00:00:06.18 bitrate=N/A    frame=  313 fps=6.7 q=24.8 size=N/A time=00:00:06.26 bitrate=N/A    frame=  317 fps=6.7 q=24.8 size=N/A time=00:00:06.34 bitrate=N/A    frame=  321 fps=6.7 q=24.8 size=N/A time=00:00:06.42 bitrate=N/A    frame=  325 fps=6.7 q=24.8 size=N/A time=00:00:06.50 bitrate=N/A    frame=  329 fps=6.7 q=24.8 size=N/A time=00:00:06.58 bitrate=N/A    frame=  333 fps=6.7 q=24.8 size=N/A time=00:00:06.66 bitrate=N/A    frame=  337 fps=6.7 q=24.8 size=N/A time=00:00:06.74 bitrate=N/A    frame=  341 fps=6.7 q=24.8 size=N/A time=00:00:06.82 bitrate=N/A    frame=  345 fps=6.7 q=24.8 size=N/A time=00:00:06.90 bitrate=N/A    frame=  349 fps=6.7 q=24.8 size=N/A time=00:00:06.98 bitrate=N/A    frame=  353 fps=6.7 q=24.8 size=N/A time=00:00:07.06 bitrate=N/A    frame=  357 fps=6.7 q=24.8 size=N/A time=00:00:07.14 bitrate=N/A    frame=  361 fps=6.7 q=24.8 size=N/A time=00:00:07.22 bitrate=N/A    frame=  365 fps=6.7 q=24.8 size=N/A time=00:00:07.30 bitrate=N/A    frame=  369 fps=6.7 q=24.8 size=N/A time=00:00:07.38 bitrate=N/A    frame=  372 fps=6.7 q=24.8 size=N/A time=00:00:07.44 bitrate=N/A    frame=  376 fps=6.7 q=24.8 size=N/A time=00:00:07.52 bitrate=N/A    frame=  380 fps=6.7 q=24.8 size=N/A time=00:00:07.60 bitrate=N/A    frame=  384 fps=6.7 q=24.8 size=N/A time=00:00:07.68 bitrate=N/A    frame=  388 fps=6.7 q=24.8 size=N/A time=00:00:07.76 bitrate=N/A    frame=  392 fps=6.7 q=24.8 size=N/A time=00:00:07.84 bitrate=N/A    frame=  396 fps=6.7 q=24.8 size=N/A time=00:00:07.92 bitrate=N/A    frame=  400 fps=6.7 q=24.8 size=N/A time=00:00:08.00 bitrate=N/A    frame=  403 fps=6.7 q=24.8 size=N/A time=00:00:08.06 bitrate=N/A    frame=  407 fps=6.7 q=24.8 size=N/A time=00:00:08.14 bitrate=N/A    frame=  411 fps=6.7 q=24.8 size=N/A time=00:00:08.22 bitrate=N/A    frame=  415 fps=6.7 q=24.8 size=N/A time=00:00:08.30 bitrate=N/A    frame=  419 fps=6.7 q=24.8 size=N/A time=00:00:08.38 bitrate=N/A    frame=  422 fps=6.7 q=24.8 size=N/A time=00:00:08.44 bitrate=N/A    frame=  427 fps=6.7 q=24.8 size=N/A time=00:00:08.54 bitrate=N/A    frame=  427 fps=6.7 q=24.8 Lsize=N/A time=00:00:08.54 bitrate=N/A    
video:351955kB audio:0kB subtitle:0kB other streams:0kB global headers:0kB muxing overhead: unknown
+ turkic load DJI_0425_szarvasragas_vaskut_20180812_napos_napraforgo_T4 /home/horvathandras/vatic/vatic/videos/DJI_0425_szarvasragas_vaskut_20180812_napos_napraforgo_T4 $'Pozit\303\255vROI' $'Negat\303\255vROI' $'T\303\272r\303\241s' '~Friss' '~1-2Hetes' '~Régebbi' '~Egyéb1' '~Egyéb2' '~Egyéb3' $'R\303\241g\303\241s' '~Friss' '~1-2Hetes' '~Régebbi' '~Egyéb1' '~Egyéb2' '~Egyéb3' $'T\303\266r\303\251s' '~Friss' '~1-2Hetes' '~Régebbi' '~Egyéb1' '~Egyéb2' '~Egyéb3' $'Tapos\303\241s' '~Friss' '~1-2Hetes' '~Régebbi' '~Egyéb1' '~Egyéb2' '~Egyéb3' $'Eg\303\251szs\303\251gesN\303\266v\303\251ny' $'Egy\303\251b1' $'Egy\303\251b2' $'Egy\303\251b3' $'Egy\303\251b4' $'Egy\303\251b5' Bizonytalan $'M\305\261vel\305\221\303\272t' $'Gktapos\303\241s' $'Vet\305\221hiba' $'Sz\303\251ld\303\266nt\303\251s' $'J\303\251gk\303\241r' $'Belv\303\255z' $'Asz\303\241ly' $'Er\303\263zi\303\263' $'Egyszik\305\261Gyom' $'K\303\251tszik\305\261Gyom' $'Egy\303\251bN\303\266vv\303\251delmiPR' --offline --title '$filenameNoDot Video' --length 1000 --description 'vatic annotation'
+ turkic publish --offline
+ mkdir /home/horvathandras/vatic/vatic/public/videothumbnails/DJI_0425_szarvasragas_vaskut_20180812_napos_napraforgo_T4
+ cp /home/horvathandras/vatic/vatic/videos/DJI_0425_szarvasragas_vaskut_20180812_napos_napraforgo_T4/0/0/31.jpg /home/horvathandras/vatic/vatic/public/videothumbnails/DJI_0425_szarvasragas_vaskut_20180812_napos_napraforgo_T4/thumb.jpg
